<svg width="25" height="21" viewBox="0 0 25 21" fill="none" xmlns="http://www.w3.org/2000/svg">
<path fill-rule="evenodd" clip-rule="evenodd" d="M24.9513 2.44693C24.0332 2.85404 23.0467 3.12924 22.0113 3.25297C23.0681 2.61944 23.8798 1.61627 24.262 0.420854C23.2728 1.00755 22.1774 1.43352 21.0113 1.66306C20.0776 0.668174 18.7471 0.0465851 17.2748 0.0465851C14.4477 0.0465851 12.1557 2.33845 12.1557 5.16544C12.1557 5.56666 12.201 5.95735 12.2883 6.33206C8.03392 6.11851 4.26194 4.0806 1.73718 0.983476C1.29654 1.73952 1.04405 2.61886 1.04405 3.55701C1.04405 5.33304 1.94776 6.8999 3.32134 7.81788C2.48221 7.79127 1.69288 7.56101 1.00278 7.17758C1.00229 7.19892 1.00229 7.22037 1.00229 7.24196C1.00229 9.72217 2.76686 11.7911 5.10858 12.2614C4.67909 12.3784 4.2268 12.4411 3.75994 12.4411C3.43007 12.4411 3.10941 12.409 2.79678 12.3491C3.44825 14.3827 5.33869 15.863 7.57875 15.9041C5.8268 17.2772 3.61954 18.0955 1.22115 18.0955C0.807943 18.0955 0.400487 18.0713 0 18.0238C2.2654 19.4764 4.95619 20.3239 7.84703 20.3239C17.2628 20.3239 22.4117 12.5236 22.4117 5.75896C22.4117 5.53703 22.4067 5.31627 22.3969 5.09668C23.3972 4.375 24.2651 3.47344 24.9513 2.44693Z" fill="black"/>
</svg>
